<svg width="90" height="26" viewBox="0 0 90 26" fill="none" xmlns="http://www.w3.org/2000/svg">
<rect width="90" height="26" rx="13" fill="#021526" fill-opacity="0.5"/>
<path d="M14.6101 7.916L16.1461 8.108V16.916C16.1461 18.476 15.1981 19.64 13.4581 19.64C11.6701 19.64 10.7821 18.5 10.7821 17.12C10.7821 16.46 10.9621 15.932 11.1781 15.524L12.5221 15.86C12.4141 16.184 12.3181 16.604 12.3181 17.12C12.3181 17.936 12.7021 18.476 13.4581 18.476C14.3221 18.476 14.6101 17.792 14.6101 16.856V12.284C14.2981 11.9 13.9501 11.624 13.4821 11.636C12.7861 11.648 12.4861 12.116 12.4861 12.764C12.4861 13.088 12.5581 13.376 12.6421 13.64L11.2261 13.88C11.0701 13.532 10.9501 13.112 10.9501 12.656C10.9501 11.384 11.9581 10.472 13.0501 10.472C13.7221 10.472 14.2141 10.772 14.6101 11.168V7.916ZM18.0149 13.556C18.0149 11.672 19.0829 10.472 20.8229 10.472C22.5749 10.472 23.6189 11.624 23.6189 13.556C23.6189 14.96 23.2709 16.088 22.8869 17H21.3989C21.7949 15.848 22.0589 14.732 22.0589 13.556C22.0589 12.212 21.6029 11.636 20.8229 11.636C20.0549 11.636 19.5749 12.212 19.5749 13.556C19.5749 14.744 19.8509 15.848 20.2469 17H18.7589C18.3749 16.088 18.0149 14.96 18.0149 13.556ZM26.0123 17C25.6163 16.088 25.2683 14.972 25.2683 13.34C25.2683 10.736 26.0363 9.332 27.9443 8.744C29.0123 8.408 30.1883 8.36 30.9083 7.94L31.4963 8.96C30.6923 9.488 29.5403 9.548 28.4963 9.836C27.7043 10.016 26.9603 10.376 26.6483 11.264C27.0083 10.76 27.4043 10.652 27.8243 10.652C28.5443 10.652 29.1203 11.072 29.3363 12.056C29.5523 11.072 30.1883 10.652 31.1003 10.652C32.3843 10.652 33.3923 11.576 33.3923 13.46C33.3923 15.056 33.0323 16.1 32.6363 17H31.1963C31.6283 15.764 31.8683 14.828 31.8683 13.508C31.8683 12.212 31.4123 11.816 30.8963 11.816C30.3803 11.816 30.0563 12.128 30.0563 12.992V14.9L28.6163 15.068V12.992C28.6163 12.044 28.2563 11.816 27.8003 11.816C27.1403 11.816 26.7923 12.368 26.7923 13.664C26.7923 14.828 27.0203 15.764 27.4523 17H26.0123ZM38.2336 10.652C38.2936 11.996 40.2496 12.764 40.2496 14.78C40.2496 16.244 39.1216 17.192 37.5376 17.192C35.7976 17.192 34.8736 16.1 34.8736 14.828C34.8736 14.3 35.0056 13.868 35.2096 13.496L36.5416 13.844C36.4576 14.096 36.3976 14.42 36.3976 14.816C36.3976 15.548 36.8056 16.028 37.5376 16.028C38.3296 16.028 38.6536 15.476 38.6536 14.792C38.6536 13.148 36.6976 12.728 36.6976 10.652H38.2336ZM45.534 14.576C46.494 14.744 47.334 15.524 47.334 16.94C47.334 18.428 46.302 19.64 44.49 19.64C42.642 19.64 41.706 18.512 41.706 17.192C41.706 16.652 41.862 16.22 42.078 15.836L43.386 16.184C43.302 16.448 43.23 16.76 43.23 17.18C43.23 17.96 43.65 18.476 44.49 18.476C45.414 18.476 45.738 17.768 45.738 16.808C45.738 15.908 45.366 15.188 44.442 15.188H43.95L44.046 14.048H44.454C45.078 14.048 45.534 13.64 45.534 12.836C45.534 12.104 45.198 11.624 44.454 11.624C43.71 11.624 43.362 12.092 43.362 12.692C43.362 12.944 43.398 13.172 43.458 13.388L42.042 13.64C41.91 13.316 41.826 12.968 41.826 12.632C41.826 11.396 42.87 10.472 44.454 10.472C46.05 10.472 47.094 11.444 47.094 12.704C47.094 13.736 46.482 14.348 45.534 14.576ZM55.0248 16.808C53.2728 16.808 52.2888 15.5 52.2888 13.688C52.2888 13.076 52.3848 12.524 52.5768 12.068C52.2408 11.744 51.9048 11.624 51.5808 11.624C51.0168 11.624 50.4168 12.02 50.4168 13.664C50.4168 15.572 51.4728 16.46 52.7568 16.976C53.8488 17.42 54.8328 17.864 55.5408 18.836L54.4968 19.64C54.0408 18.956 53.1888 18.308 52.1208 18.308C51.2928 18.308 50.6208 18.584 50.0688 18.908L49.6728 17.72C50.0688 17.564 50.6088 17.42 51.3528 17.42C50.0688 16.82 48.8568 15.908 48.8568 13.532C48.8568 11.42 50.0088 10.472 51.3168 10.472C52.0248 10.472 52.6128 10.76 53.0928 11.228C53.5608 10.736 54.2088 10.472 55.0128 10.472C56.7648 10.472 57.7488 11.78 57.7488 13.676C57.7488 15.572 56.7648 16.808 55.0248 16.808ZM55.0128 11.612C54.2568 11.612 53.8488 12.26 53.8488 13.676C53.8488 14.996 54.2568 15.668 55.0248 15.668C55.7808 15.668 56.1888 15.008 56.1888 13.676C56.1888 12.272 55.7808 11.612 55.0128 11.612ZM62.0555 10.472C63.5915 10.472 64.6355 11.42 64.6355 12.956V16.928C64.6355 18.488 63.6755 19.64 61.9475 19.64C60.1595 19.64 59.2715 18.5 59.2715 17.12C59.2715 16.46 59.4515 15.932 59.6675 15.524L61.0115 15.86C60.9035 16.184 60.8075 16.604 60.8075 17.12C60.8075 17.936 61.1915 18.476 61.9475 18.476C62.7875 18.476 63.0995 17.84 63.0995 16.916V12.944C63.0995 12.176 62.7995 11.636 62.0435 11.636C61.2755 11.636 60.9755 12.152 60.9755 12.704C60.9755 13.076 61.0475 13.388 61.1195 13.628L59.7155 13.88C59.5595 13.532 59.4395 13.112 59.4395 12.716C59.4395 11.372 60.5315 10.472 62.0555 10.472ZM70.1657 10.544C71.5577 10.844 72.3617 12.032 72.3617 13.82C72.3617 15.836 71.2577 17.18 69.3737 17.18C67.5017 17.18 66.3857 15.908 66.3857 13.82C66.3857 12.056 67.2617 10.784 68.7737 10.52C68.8097 10.412 68.8217 10.28 68.8217 10.088C68.8217 9.356 67.7897 9.284 67.7897 8.108L69.2657 7.952C69.2897 8.804 70.2977 8.948 70.2977 9.956C70.2977 10.172 70.2377 10.376 70.1657 10.544ZM69.3737 16.016C70.2737 16.016 70.7417 15.332 70.7417 13.82C70.7417 12.284 70.2737 11.612 69.3857 11.612C68.4857 11.612 68.0057 12.296 68.0057 13.82C68.0057 15.344 68.4737 16.016 69.3737 16.016ZM77.1375 10.652C77.1975 11.996 79.1535 12.764 79.1535 14.78C79.1535 16.244 78.0255 17.192 76.4415 17.192C74.7015 17.192 73.7775 16.1 73.7775 14.828C73.7775 14.3 73.9095 13.868 74.1135 13.496L75.4455 13.844C75.3615 14.096 75.3015 14.42 75.3015 14.816C75.3015 15.548 75.7095 16.028 76.4415 16.028C77.2335 16.028 77.5575 15.476 77.5575 14.792C77.5575 13.148 75.6015 12.728 75.6015 10.652H77.1375Z" fill="white"/>
</svg>
